<?xml version="1.0" encoding="UTF-8" standalone="no"?>
<!-- Created with Inkscape (http://www.inkscape.org/) -->

<svg
   version="1.1"
   id="svg2"
   width="1500"
   height="3248"
   viewBox="0 0 1500 3248"
   xmlns="http://www.w3.org/2000/svg"
   xmlns:svg="http://www.w3.org/2000/svg">
  <defs
     id="defs6">
    <linearGradient
       x1="0"
       y1="0"
       x2="1"
       y2="0"
       gradientUnits="userSpaceOnUse"
       gradientTransform="matrix(0,2370.3311,2370.3311,0,569.3324,-12.156386)"
       spreadMethod="pad"
       id="linearGradient32">
      <stop
         style="stop-opacity:1;stop-color:#16a0db"
         offset="0"
         id="stop22" />
      <stop
         style="stop-opacity:1;stop-color:#16a0db"
         offset="0.351375"
         id="stop24" />
      <stop
         style="stop-opacity:1;stop-color:#16a0db"
         offset="0.71082121"
         id="stop26" />
      <stop
         style="stop-opacity:1;stop-color:#ffffff"
         offset="0.921223"
         id="stop28" />
      <stop
         style="stop-opacity:1;stop-color:#ffffff"
         offset="1"
         id="stop30" />
    </linearGradient>
    <linearGradient
       x1="0"
       y1="0"
       x2="1"
       y2="0"
       gradientUnits="userSpaceOnUse"
       gradientTransform="matrix(0,2376.0259,2376.0259,0,564.0636,-13.602859)"
       spreadMethod="pad"
       id="linearGradient54">
      <stop
         style="stop-opacity:1;stop-color:#0095d8"
         offset="0"
         id="stop48" />
      <stop
         style="stop-opacity:1;stop-color:#ffffff"
         offset="0.6423"
         id="stop50" />
      <stop
         style="stop-opacity:1;stop-color:#ffffff"
         offset="1"
         id="stop52" />
    </linearGradient>
    <clipPath
       clipPathUnits="userSpaceOnUse"
       id="clipPath64">
      <path
         d="M 0,2436 H 1125 V 0 H 0 Z"
         id="path62" />
    </clipPath>
    <linearGradient
       x1="0"
       y1="0"
       x2="1"
       y2="0"
       gradientUnits="userSpaceOnUse"
       gradientTransform="matrix(-1150.3225,0,0,-1241.6847,1143.0566,230.55049)"
       spreadMethod="pad"
       id="linearGradient90">
      <stop
         style="stop-opacity:1;stop-color:#16a0db"
         offset="0"
         id="stop82" />
      <stop
         style="stop-opacity:1;stop-color:#3cb6e9"
         offset="0.9086294"
         id="stop84" />
      <stop
         style="stop-opacity:1;stop-color:#3cb6e9"
         offset="0.921223"
         id="stop86" />
      <stop
         style="stop-opacity:1;stop-color:#3cb6e9"
         offset="1"
         id="stop88" />
    </linearGradient>
  </defs>
  <g
     id="g8"
     transform="matrix(1.3333333,0,0,-1.3333333,0,3248)">
    <g
       id="g10">
      <g
         id="g12">
        <g
           id="g18">
          <g
             id="g20">
            <path
               d="m 57.191,2358.175 c -25.121,0 -46.842,-14.557 -57.191,-35.694 v 0 V 23.537 C 4.587,14.167 11.411,6.088 19.774,0 v 0 h 1099.117 c 2.141,1.559 4.182,3.248 6.109,5.056 v 0 2335.906 c -11.382,10.675 -26.69,17.213 -43.526,17.213 v 0 z"
               style="fill:url(#linearGradient32);stroke:none"
               id="path34" />
          </g>
        </g>
      </g>
    </g>
    <g
       id="g36">
      <g
         id="g38">
        <g
           id="g44">
          <g
             id="g46">
            <path
               d="m 46.918,2362.423 c -18.571,0 -35.284,-7.955 -46.918,-20.643 v 0 V 7.04 C 2.334,4.494 4.873,2.139 7.591,0 v 0 h 1112.946 c 1.547,1.218 3.036,2.506 4.463,3.859 v 0 2341.102 c -11.408,10.822 -26.824,17.462 -43.79,17.462 v 0 z"
               style="fill:url(#linearGradient54);stroke:none"
               id="path56" />
          </g>
        </g>
      </g>
    </g>
    <g
       id="g58">
      <g
         id="g60"
         clip-path="url(#clipPath64)">
        <g
           id="g66"
           transform="translate(1150.1296,534.8217)">
          <path
             d="m 0,0 -3.491,1266.619 c -3.542,-1.823 14.147,63.388 -28.431,65.24 l -814.89,2.417 c -178.011,0 -322.318,-103.206 -322.318,-230.515 V 285.658 c 0,-123.423 33.556,-307.671 390.701,-307.356 l -27.363,-0.812 c 0,0 138.48,-0.085 180.185,-54.466 130.22,-169.798 178.132,-226.375 572.214,-202.003 30.063,1.86 54.828,17.366 54.894,39.256 C 1.689,-178.09 2.783,-16.722 0,0"
             style="fill:#ffffff;fill-opacity:1;fill-rule:nonzero;stroke:none"
             id="path68" />
        </g>
      </g>
    </g>
    <g
       id="g70">
      <g
         id="g72">
        <g
           id="g78">
          <g
             id="g80">
            <path
               d="M 0,467.458 V 33.362 C 5.255,18.099 14.116,7.418 25.468,0 V 0 H 1114.53 c 3.691,2.418 7.223,5.306 10.47,8.75 v 0 64.108 c -16.071,0.166 -44.778,-3.863 -93.093,-22.534 v 0 C 995.748,36.351 928.449,27.471 862.838,34.902 v 0 c -60.509,6.854 -86.274,27.826 -92.543,32.557 v 0 c -14.381,10.852 -42.713,29.129 -65.848,58.259 v 0 c -35.448,44.631 -44.754,162.503 -391.528,164.496 v 0 C 127.12,291.281 101.828,407.461 66.508,455.879 v 0 c -11.075,15.182 -26.09,21.22 -39.689,21.222 v 0 C 16.149,477.102 6.351,473.387 0,467.458"
               style="fill:url(#linearGradient90);stroke:none"
               id="path92" />
          </g>
        </g>
      </g>
    </g>
  </g>
</svg>
